<svg xmlns="http://www.w3.org/2000/svg" viewBox="0 0 100 100"><path fill="#0d0d0d" d="M10 10h80v80H10z"/><path d="M50 31.333333c-1.837037 0-3.407407-.651851-4.711111-1.955555-1.303704-1.303704-1.955556-2.874074-1.955556-4.711111 0-1.837038.651852-3.407407 1.955556-4.711111C46.592593 18.651852 48.162963 18 50 18s3.407407.651852 4.711111 1.955556c1.303704 1.303704 1.955556 2.874073 1.955556 4.711111 0 1.837037-.651852 3.407407-1.955556 4.711111C53.407407 30.681482 51.837037 31.333333 50 31.333333Zm0 16.088889 29.333333-29.333333 2.577778 2.577778L52.577778 50l29.333333 29.333333-2.577778 2.577778L50 52.577778 20.577778 82 18 79.422222 47.422222 50 18.088889 20.666667l2.577778-2.577778ZM31.333333 50c0 1.837037-.651851 3.407407-1.955555 4.711111-1.303704 1.303704-2.874074 1.955556-4.711111 1.955556-1.837038 0-3.407407-.651852-4.711111-1.955556C18.651852 53.407407 18 51.837037 18 50s.651852-3.407407 1.955556-4.711111c1.303704-1.303704 2.874073-1.955556 4.711111-1.955556 1.837037 0 3.407407.651852 4.711111 1.955556C30.681482 46.592593 31.333333 48.162963 31.333333 50zm37.333334 0c0-1.837037.651851-3.407407 1.955555-4.711111 1.303704-1.303704 2.874074-1.955556 4.711111-1.955556 1.837038 0 3.407408.651852 4.711112 1.955556C81.348149 46.592593 82 48.162963 82 50s-.651851 3.407407-1.955555 4.711111c-1.303704 1.303704-2.874074 1.955556-4.711112 1.955556-1.837037 0-3.407407-.651852-4.711111-1.955556C69.318518 53.407407 68.666667 51.837037 68.666667 50ZM50 68.666667c1.837037 0 3.407407.651851 4.711111 1.955555 1.303704 1.303704 1.955556 2.874074 1.955556 4.711111 0 1.837038-.651852 3.407408-1.955556 4.711112C53.407407 81.348149 51.837037 82 50 82s-3.407407-.651851-4.711111-1.955555c-1.303704-1.303704-1.955556-2.874074-1.955556-4.711112 0-1.837037.651852-3.407407 1.955556-4.711111C46.592593 69.318518 48.162963 68.666667 50 68.666667Z" style="fill:#dedede;stroke-width:1"/></svg>
